<svg width="900" height="320" xmlns="http://www.w3.org/2000/svg" font-family="Arial, Helvetica, sans-serif" font-size="12">
  <defs>
    <marker id="arrowhead" markerWidth="10" markerHeight="7" refX="9" refY="3.5" orient="auto">
      <polygon points="0 0, 10 3.5, 0 7" fill="#000" />
    </marker>
  </defs>

  <!-- Background -->
  <rect x="0" y="0" width="900" height="320" fill="#ffffff" />

  <!-- Layer: Client Layer (Compact) -->
  <rect x="20" y="40" width="140" height="240" fill="none" stroke="#444" stroke-dasharray="5,5" stroke-width="2" rx="10" />
  <text x="90" y="30" text-anchor="middle" font-weight="bold" font-size="13">Client Layer</text>

  <!-- Clients (Tighter Vertical Spacing) -->
  <g transform="translate(90, 80)">
    <circle cx="0" cy="0" r="22" fill="#fff" stroke="#000" stroke-width="2"/>
    <text x="0" y="5" text-anchor="middle" font-size="11">Client 1</text>
  </g>
  <g transform="translate(90, 160)">
    <circle cx="0" cy="0" r="22" fill="#fff" stroke="#000" stroke-width="2"/>
    <text x="0" y="5" text-anchor="middle" font-size="11">Client 2</text>
  </g>
  <g transform="translate(90, 240)">
    <circle cx="0" cy="0" r="22" fill="#fff" stroke="#000" stroke-width="2"/>
    <text x="0" y="5" text-anchor="middle" font-size="11">Client 3</text>
  </g>

  <!-- Layer: System Boundary (Compact) -->
  <rect x="180" y="40" width="560" height="240" fill="none" stroke="#444" stroke-dasharray="5,5" stroke-width="2" rx="10" />
  <text x="460" y="30" text-anchor="middle" font-weight="bold" font-size="13">LLM Request Management System</text>

  <!-- API Gateway (Vertical Center) -->
  <rect x="200" y="80" width="90" height="160" fill="#fff" stroke="#000" stroke-width="2" rx="5" />
  <text x="245" y="160" text-anchor="middle" font-weight="bold">API Gateway</text>
  <text x="245" y="180" text-anchor="middle" font-size="10">(Express.js)</text>
  
  <!-- Scheduling Kernel Group (Compact) -->
  <rect x="310" y="60" width="410" height="200" fill="#f9f9f9" stroke="#666" stroke-width="1" rx="5" />
  <text x="515" y="75" text-anchor="middle" font-weight="bold" font-size="12" fill="#444">Scheduling Kernel</text>

  <!-- Scheduler Manager -->
  <rect x="330" y="100" width="70" height="120" rx="20" ry="20" fill="#fff" stroke="#000" stroke-width="2" />
  <text x="365" y="155" text-anchor="middle" font-size="11" font-weight="bold">Scheduler</text>
  <text x="365" y="170" text-anchor="middle" font-size="11" font-weight="bold">Manager</text>
  
  <!-- Ready Queue (Stacked) -->
  <text x="450" y="95" text-anchor="middle" font-size="11" font-weight="bold">Ready Queue</text>
  <rect x="420" y="110" width="60" height="25" fill="#eee" stroke="#000" stroke-width="1" />
  <text x="450" y="127" text-anchor="middle" font-size="10">Queue 1</text>
  <rect x="420" y="145" width="60" height="25" fill="#eee" stroke="#000" stroke-width="1" />
  <text x="450" y="162" text-anchor="middle" font-size="10">Queue 2</text>
  <rect x="420" y="180" width="60" height="25" fill="#eee" stroke="#000" stroke-width="1" />
  <text x="450" y="197" text-anchor="middle" font-size="10">Queue 3</text>

  <!-- Scheduler Core (Wide Shape for Text) -->
  <rect x="510" y="120" width="130" height="80" rx="10" fill="#fff" stroke="#000" stroke-width="2" />
  <text x="575" y="150" text-anchor="middle" font-weight="bold" font-size="11">Scheduler Core</text>
  <text x="575" y="170" text-anchor="middle" font-size="9">(FCFS/Priority/MLFQ/WFQ)</text>

  <!-- Dispatcher -->
  <rect x="660" y="130" width="50" height="60" fill="#fff" stroke="#000" stroke-width="2" rx="5" />
  <text x="685" y="165" text-anchor="middle" font-weight="bold" font-size="10">Dispatcher</text>

  <!-- Layer: Resources (Compact) -->
  <rect x="760" y="40" width="120" height="240" fill="none" stroke="#444" stroke-dasharray="5,5" stroke-width="2" rx="10" />
  <text x="820" y="30" text-anchor="middle" font-weight="bold" font-size="13">Compute Layer</text>

  <!-- LLM Engine -->
  <rect x="775" y="110" width="90" height="100" fill="#fff" stroke="#000" stroke-width="3" rx="0" />
  <line x1="785" y1="110" x2="785" y2="210" stroke="#000" stroke-width="1" />
  <line x1="855" y1="110" x2="855" y2="210" stroke="#000" stroke-width="1" />
  <text x="820" y="155" text-anchor="middle" font-weight="bold">LLM Engine</text>
  <text x="820" y="175" text-anchor="middle" font-size="10">(Ollama)</text>


  <!-- Connections -->
  
  <!-- Clients to API Gateway -->
  <line x1="112" y1="80" x2="200" y2="130" stroke="#000" stroke-width="1.5" marker-end="url(#arrowhead)" />
  <line x1="112" y1="160" x2="200" y2="160" stroke="#000" stroke-width="1.5" marker-end="url(#arrowhead)" />
  <line x1="112" y1="240" x2="200" y2="190" stroke="#000" stroke-width="1.5" marker-end="url(#arrowhead)" />

  <!-- API to Manager -->
  <line x1="290" y1="160" x2="330" y2="160" stroke="#000" stroke-width="1.5" marker-end="url(#arrowhead)" />
  <text x="310" y="150" text-anchor="middle" font-size="10" font-weight="bold">1</text>

  <!-- Manager to Ready Queue -->
  <line x1="400" y1="160" x2="420" y2="160" stroke="#000" stroke-width="1.5" marker-end="url(#arrowhead)" />
  <text x="410" y="150" text-anchor="middle" font-size="10" font-weight="bold">2</text>
  
  <!-- Ready Queue to Scheduler -->
  <line x1="480" y1="160" x2="510" y2="160" stroke="#000" stroke-width="1.5" stroke-dasharray="3,3" marker-end="url(#arrowhead)" />
  <text x="495" y="150" text-anchor="middle" font-size="10" font-weight="bold">3</text>

  <!-- Scheduler to Dispatcher -->
  <line x1="640" y1="160" x2="660" y2="160" stroke="#000" stroke-width="1.5" marker-end="url(#arrowhead)" />
  <text x="650" y="150" text-anchor="middle" font-size="10" font-weight="bold">4</text>

  <!-- Dispatcher to LLM Engine -->
  <line x1="710" y1="160" x2="775" y2="160" stroke="#000" stroke-width="1.5" marker-end="url(#arrowhead)" />
  <text x="742" y="150" text-anchor="middle" font-size="10" font-weight="bold">5</text>

  <!-- LLM Engine back to Dispatcher -->
  <line x1="775" y1="180" x2="710" y2="180" stroke="#000" stroke-width="1.5" stroke-dasharray="3,3" marker-end="url(#arrowhead)" />
  <text x="742" y="195" text-anchor="middle" font-size="10" font-weight="bold">6</text>

  <!-- Dispatcher back to API (Long Feedback Loop) -->
  <path d="M685,190 C685,250 245,250 245,240" fill="none" stroke="#000" stroke-width="1.5" stroke-dasharray="3,3" marker-end="url(#arrowhead)" />
  <text x="465" y="255" text-anchor="middle" font-size="10" font-weight="bold">7</text>

</svg>
