<svg width="900" height="320" xmlns="http://www.w3.org/2000/svg" font-family="Arial, Helvetica, sans-serif" font-size="12">
  <defs>
    <marker id="arrowhead" markerWidth="10" markerHeight="7" refX="9" refY="3.5" orient="auto">
      <polygon points="0 0, 10 3.5, 0 7" fill="#000" />
    </marker>
  </defs>

  <!-- Background -->
  <rect x="0" y="0" width="900" height="320" fill="#ffffff" />

  <!-- Layer: Client Layer (Reduced width 20% -> 112px) -->
  <rect x="20" y="40" width="112" height="240" fill="none" stroke="#444" stroke-dasharray="5,5" stroke-width="2" rx="10" />
  <text x="76" y="30" text-anchor="middle" font-weight="bold" font-size="13">Client Layer</text>

  <!-- Clients (Center x=76) -->
  <g transform="translate(76, 80)">
    <circle cx="0" cy="0" r="22" fill="#fff" stroke="#000" stroke-width="2"/>
    <text x="0" y="5" text-anchor="middle" font-size="11">Client 1</text>
  </g>
  <g transform="translate(76, 160)">
    <circle cx="0" cy="0" r="22" fill="#fff" stroke="#000" stroke-width="2"/>
    <text x="0" y="5" text-anchor="middle" font-size="11">Client 2</text>
  </g>
  <g transform="translate(76, 240)">
    <circle cx="0" cy="0" r="22" fill="#fff" stroke="#000" stroke-width="2"/>
    <text x="0" y="5" text-anchor="middle" font-size="11">Client 3</text>
  </g>

  <!-- Layer: System Boundary (x=170) -->
  <rect x="170" y="40" width="585" height="240" fill="none" stroke="#444" stroke-dasharray="5,5" stroke-width="2" rx="10" />
  <text x="460" y="30" text-anchor="middle" font-weight="bold" font-size="13">LLM Request Management System</text>

  <!-- API Gateway (x=190, w=90, Center=235) -->
  <rect x="190" y="80" width="90" height="160" fill="#fff" stroke="#000" stroke-width="2" rx="5" />
  <text x="235" y="160" text-anchor="middle" font-weight="bold">API Gateway</text>
  <text x="235" y="180" text-anchor="middle" font-size="10">(Express.js)</text>
  
  <!-- Scheduling Kernel Group (x=320) -->
  <rect x="320" y="60" width="425" height="200" fill="#f9f9f9" stroke="#666" stroke-width="1" rx="5" />
  <text x="530" y="75" text-anchor="middle" font-weight="bold" font-size="12" fill="#444">Scheduling Kernel</text>

  <!-- Scheduler Manager (x=340, w=70, Center=375) -->
  <rect x="340" y="100" width="70" height="120" rx="20" ry="20" fill="#fff" stroke="#000" stroke-width="2" />
  <text x="375" y="155" text-anchor="middle" font-size="11" font-weight="bold">Scheduler</text>
  <text x="375" y="170" text-anchor="middle" font-size="11" font-weight="bold">Manager</text>
  
  <!-- Ready Queue (x=430, w=60, Center=460) -->
  <text x="460" y="95" text-anchor="middle" font-size="11" font-weight="bold">Ready Queue</text>
  <rect x="430" y="110" width="60" height="25" fill="#eee" stroke="#000" stroke-width="1" />
  <text x="460" y="127" text-anchor="middle" font-size="10">Queue 1</text>
  <rect x="430" y="145" width="60" height="25" fill="#eee" stroke="#000" stroke-width="1" />
  <text x="460" y="162" text-anchor="middle" font-size="10">Queue 2</text>
  <rect x="430" y="180" width="60" height="25" fill="#eee" stroke="#000" stroke-width="1" />
  <text x="460" y="197" text-anchor="middle" font-size="10">Queue 3</text>

  <!-- Scheduler Core (x=520, w=130, Center=585) -->
  <rect x="520" y="120" width="130" height="80" rx="10" fill="#fff" stroke="#000" stroke-width="2" />
  <text x="585" y="150" text-anchor="middle" font-weight="bold" font-size="11">Scheduler Core</text>
  <text x="585" y="170" text-anchor="middle" font-size="9">(FCFS/Priority/MLFQ/WFQ)</text>

  <!-- Dispatcher (Expanded 10% -> 55px, x=670, Center=697.5) -->
  <rect x="670" y="130" width="55" height="60" fill="#fff" stroke="#000" stroke-width="2" rx="5" />
  <text x="697.5" y="165" text-anchor="middle" font-weight="bold" font-size="10">Dispatcher</text>

  <!-- Layer: Resources (Starts x=775) -->
  <rect x="775" y="40" width="120" height="240" fill="none" stroke="#444" stroke-dasharray="5,5" stroke-width="2" rx="10" />
  <text x="835" y="30" text-anchor="middle" font-weight="bold" font-size="13">Compute Layer</text>

  <!-- LLM Engine (Expanded 10% -> 100px, x=785, Center=835) -->
  <rect x="785" y="110" width="100" height="100" fill="#fff" stroke="#000" stroke-width="3" rx="0" />
  <line x1="795" y1="110" x2="795" y2="210" stroke="#000" stroke-width="1" />
  <line x1="875" y1="110" x2="875" y2="210" stroke="#000" stroke-width="1" />
  <text x="835" y="155" text-anchor="middle" font-weight="bold">LLM Engine</text>
  <text x="835" y="175" text-anchor="middle" font-size="10">(Ollama)</text>


  <!-- Connections -->
  
  <!-- Clients (Center 76) to API Gateway (Edge 190) -->
  <line x1="98" y1="80" x2="190" y2="130" stroke="#000" stroke-width="1.5" marker-end="url(#arrowhead)" />
  <line x1="98" y1="160" x2="190" y2="160" stroke="#000" stroke-width="1.5" marker-end="url(#arrowhead)" />
  <line x1="98" y1="240" x2="190" y2="190" stroke="#000" stroke-width="1.5" marker-end="url(#arrowhead)" />

  <!-- API (Edge 280) to Manager (Edge 340) -->
  <line x1="280" y1="160" x2="340" y2="160" stroke="#000" stroke-width="1.5" marker-end="url(#arrowhead)" />
  <text x="310" y="150" text-anchor="middle" font-size="10" font-weight="bold">1</text>

  <!-- Manager (Edge 410) to Ready Queue (Edge 430) -->
  <line x1="410" y1="160" x2="430" y2="160" stroke="#000" stroke-width="1.5" marker-end="url(#arrowhead)" />
  <text x="420" y="150" text-anchor="middle" font-size="10" font-weight="bold">2</text>
  
  <!-- Ready Queue (Edge 490) to Scheduler (Edge 520) -->
  <line x1="490" y1="160" x2="520" y2="160" stroke="#000" stroke-width="1.5" stroke-dasharray="3,3" marker-end="url(#arrowhead)" />
  <text x="505" y="150" text-anchor="middle" font-size="10" font-weight="bold">3</text>

  <!-- Scheduler (Edge 650) to Dispatcher (Edge 670) -->
  <line x1="650" y1="160" x2="670" y2="160" stroke="#000" stroke-width="1.5" marker-end="url(#arrowhead)" />
  <text x="660" y="150" text-anchor="middle" font-size="10" font-weight="bold">4</text>

  <!-- Dispatcher (Edge 725) to LLM Engine (Edge 785) -->
  <line x1="725" y1="160" x2="785" y2="160" stroke="#000" stroke-width="1.5" marker-end="url(#arrowhead)" />
  <text x="755" y="150" text-anchor="middle" font-size="10" font-weight="bold">5</text>

  <!-- LLM Engine (Edge 785) back to Dispatcher (Edge 725) -->
  <line x1="785" y1="180" x2="725" y2="180" stroke="#000" stroke-width="1.5" stroke-dasharray="3,3" marker-end="url(#arrowhead)" />
  <text x="755" y="195" text-anchor="middle" font-size="10" font-weight="bold">6</text>

  <!-- Dispatcher (Center 697.5) back to API (Center 235) -->
  <path d="M697.5,190 C697.5,250 235,250 235,240" fill="none" stroke="#000" stroke-width="1.5" stroke-dasharray="3,3" marker-end="url(#arrowhead)" />
  <text x="465" y="255" text-anchor="middle" font-size="10" font-weight="bold">7</text>

</svg>
